ply
format ascii 1.0
comment Created by Blender 3.6.2 - www.blender.org
element vertex 116
property float x
property float y
property float z
property float nx
property float ny
property float nz
property uchar red
property uchar green
property uchar blue
property uchar alpha
element face 147
property list uchar uint vertex_indices
end_header
0.008342 0.016175 0.012623 0.716144 0.696119 0.050548 199 20 137 255
0.002102 -0.007037 0.004128 0.507147 -0.000029 -0.861860 199 20 137 255
0.002045 0.011725 0.004087 0.352705 0.425254 -0.833521 199 20 137 255
-0.008342 0.016175 0.012623 -0.717179 0.694974 0.051617 199 20 137 255
-0.002102 -0.007037 0.004128 -0.507147 -0.000029 -0.861860 199 20 137 255
-0.008342 -0.012216 0.012536 -0.988371 0.000462 -0.152060 199 20 137 255
-0.002045 0.011725 0.004087 -0.352705 0.425254 -0.833521 199 20 137 255
-0.004732 0.012351 0.017124 -0.365080 0.366972 0.855598 199 20 137 255
0.004732 0.012351 0.017124 0.361296 0.369677 0.856040 199 20 137 255
-0.002525 -0.007896 0.020137 -0.372106 0.096818 0.923127 199 20 137 255
0.002525 -0.007896 0.020137 0.359425 0.098913 0.927917 199 20 137 255
0.005769 -0.007019 0.016169 0.796179 0.003748 0.605049 199 20 137 255
-0.005568 -0.007017 0.016143 -0.792093 0.000564 0.610400 199 20 137 255
-0.004329 -0.011901 0.026832 -0.733656 -0.423535 0.531382 0 0 0 255
-0.005746 -0.011678 0.025053 -0.730144 -0.434701 0.527186 0 0 0 255
-0.005445 -0.012713 0.024593 -0.726991 -0.444375 0.523464 0 0 0 255
-0.007350 -0.007528 0.025917 -0.887124 -0.331120 0.321511 255 255 255 255
-0.006279 -0.013288 0.023065 -0.953349 -0.258122 0.156520 255 255 255 255
-0.005746 -0.011678 0.025053 -0.743085 -0.408556 0.530006 255 255 255 255
-0.006540 -0.009425 0.023342 -0.962055 -0.045775 -0.268987 255 255 255 255
-0.005445 -0.012713 0.024593 -0.719613 -0.429960 0.545245 255 255 255 255
-0.003529 -0.014740 0.025623 -0.739343 -0.422847 0.523996 255 255 255 255
-0.003675 -0.010673 0.028907 -0.761645 -0.423561 0.490402 255 255 255 255
-0.004329 -0.011901 0.026832 -0.755782 -0.425160 0.498029 255 255 255 255
-0.005214 -0.010071 0.027038 -0.758595 -0.416185 0.501323 255 255 255 255
-0.006264 -0.013314 0.023015 -0.962054 -0.045772 -0.268993 255 255 255 255
-0.006257 -0.013405 0.023007 -0.826721 -0.365507 0.427711 255 255 255 255
0.004713 -0.011964 0.026515 0.785740 -0.411511 0.461814 255 255 255 255
0.005521 -0.010263 0.026641 0.791830 -0.409468 0.453146 255 255 255 255
0.004016 -0.010673 0.028907 0.792268 -0.410121 0.451788 255 255 255 255
0.006188 -0.013397 0.023024 0.861820 -0.355284 0.361994 255 255 255 255
0.006363 -0.009461 0.023311 0.939061 -0.016694 -0.343345 255 255 255 255
0.007350 -0.007528 0.025917 0.909123 -0.323423 0.262475 255 255 255 255
0.006076 -0.010280 0.025668 0.776540 -0.401698 0.485412 255 255 255 255
0.006076 -0.010280 0.025668 0.786079 -0.398572 0.472461 0 0 0 255
0.004713 -0.011964 0.026515 0.784088 -0.392975 0.480393 0 0 0 255
0.005471 -0.012701 0.024720 0.781755 -0.386633 0.489257 0 0 0 255
-0.003559 -0.026247 0.015345 -0.568523 -0.643941 -0.511979 0 201 199 255
-0.005118 -0.018495 0.019976 -0.915285 -0.318410 0.246715 0 201 199 255
-0.004049 -0.018498 0.015913 -0.636742 0.016163 -0.770908 0 201 199 255
0.003559 -0.026247 0.015345 0.570748 -0.637055 -0.518080 0 201 199 255
-0.003120 -0.026098 0.016447 -0.383424 -0.781808 0.491693 0 201 199 255
0.003136 -0.026139 0.016412 0.389464 -0.788466 0.476067 0 201 199 255
-0.003385 -0.018731 0.022399 -0.347333 -0.596830 0.723294 0 201 199 255
0.005141 -0.018436 0.019756 0.937124 -0.291370 0.192100 0 201 199 255
0.004057 -0.018381 0.015921 0.632144 0.016730 -0.774670 0 201 199 255
0.006363 -0.009461 0.023311 0.959926 -0.035607 -0.277983 199 20 137 255
0.004290 -0.014693 0.016191 0.576285 0.129518 -0.806921 199 20 137 255
0.006105 -0.001217 0.021295 0.529933 0.671747 -0.517616 199 20 137 255
0.005141 -0.018436 0.019756 0.979593 -0.200671 -0.011371 199 20 137 255
0.006188 -0.013397 0.023024 0.981683 -0.190515 -0.001217 199 20 137 255
-0.004290 -0.014693 0.016191 -0.575472 0.123408 -0.808457 199 20 137 255
0.004057 -0.018381 0.015921 0.574148 0.023602 -0.818411 199 20 137 255
-0.004049 -0.018498 0.015913 -0.583943 0.022476 -0.811483 199 20 137 255
-0.007072 -0.001446 0.025298 -0.692032 0.647542 0.319032 199 20 137 255
-0.006105 -0.001217 0.021295 -0.533791 0.674972 -0.509392 199 20 137 255
-0.007350 -0.007528 0.025917 -0.947771 0.040007 0.316433 199 20 137 255
-0.003675 -0.010673 0.028907 -0.212174 -0.311055 0.926405 199 20 137 255
0.002413 -0.005958 0.029772 0.220970 0.264946 0.938603 199 20 137 255
-0.002418 -0.005958 0.029772 -0.228542 0.260122 0.938139 199 20 137 255
0.007257 -0.001446 0.025298 0.711294 0.634009 0.303469 199 20 137 255
0.007350 -0.007528 0.025917 0.951867 0.028204 0.305210 199 20 137 255
0.004016 -0.010673 0.028907 0.223814 -0.294673 0.929018 199 20 137 255
0.003560 -0.018696 0.022426 0.482859 -0.579272 0.656727 199 20 137 255
0.003776 -0.014892 0.025499 0.267310 -0.614739 0.742052 199 20 137 255
-0.006257 -0.013405 0.023007 -0.976640 -0.214555 0.011867 199 20 137 255
-0.006540 -0.009425 0.023342 -0.958896 -0.025998 -0.282563 199 20 137 255
-0.003529 -0.014740 0.025623 -0.243840 -0.614724 0.750104 199 20 137 255
-0.003385 -0.018731 0.022399 -0.449207 -0.579649 0.679868 199 20 137 255
-0.001028 0.025536 0.030265 -0.488876 -0.493625 0.719259 0 201 199 255
-0.001747 0.016544 0.003423 -0.598480 0.424141 -0.679651 0 201 199 255
-0.001747 0.011657 0.004029 -0.567384 -0.731501 -0.378130 0 201 199 255
-0.001206 0.026116 0.030265 -0.635257 0.606599 0.478002 0 201 199 255
0.001747 0.016544 0.003423 0.598480 0.424141 -0.679651 0 201 199 255
0.001028 0.025536 0.030265 0.488876 -0.493625 0.719259 0 201 199 255
0.001747 0.011657 0.004029 0.567384 -0.731500 -0.378131 0 201 199 255
0.001206 0.026116 0.030265 0.635257 0.606599 0.478002 0 201 199 255
-0.010013 -0.008667 0.002847 -0.655556 -0.611215 0.443467 0 201 199 255
-0.009696 0.009914 0.006341 -0.592540 0.714867 0.371297 0 201 199 255
-0.009661 0.009274 0.001590 -0.572665 0.560855 -0.597910 0 201 199 255
-0.005097 -0.008792 0.002847 0.611554 -0.638120 0.467766 0 201 199 255
-0.009940 -0.009287 0.000544 -0.557770 -0.634536 -0.535030 0 201 199 255
-0.005044 -0.009347 0.000658 0.566101 -0.648278 -0.509180 0 201 199 255
-0.004678 0.009010 0.001551 0.614656 0.508651 -0.602887 0 201 199 255
-0.004759 0.009916 0.006360 0.346504 0.831458 0.434295 0 201 199 255
-0.010028 -0.003346 0.006216 -0.730728 -0.364195 0.577407 0 201 199 255
-0.009768 0.002578 0.010022 -0.600995 -0.031345 0.798638 0 201 199 255
-0.005112 -0.003470 0.006216 0.516791 -0.454817 0.725305 0 201 199 255
-0.004930 0.002580 0.010041 -0.612701 -0.016043 0.790152 0 201 199 255
0.010013 -0.008667 0.002847 0.655556 -0.611215 0.443467 0 201 199 255
0.009661 0.009274 0.001590 0.572665 0.560855 -0.597910 0 201 199 255
0.009696 0.009914 0.006341 0.592540 0.714867 0.371297 0 201 199 255
0.005097 -0.008792 0.002847 -0.611554 -0.638120 0.467766 0 201 199 255
0.009940 -0.009287 0.000544 0.557770 -0.634536 -0.535030 0 201 199 255
0.004678 0.009010 0.001551 -0.614656 0.508651 -0.602887 0 201 199 255
0.005044 -0.009347 0.000658 -0.566101 -0.648278 -0.509180 0 201 199 255
0.004759 0.009916 0.006360 -0.601577 0.707074 0.371688 0 201 199 255
0.010028 -0.003346 0.006216 0.730728 -0.364195 0.577407 0 201 199 255
0.009768 0.002578 0.010022 0.600995 -0.031345 0.798638 0 201 199 255
0.005112 -0.003470 0.006216 -0.683129 -0.393213 0.615400 0 201 199 255
0.004930 0.002580 0.010041 -0.611665 -0.048508 0.789628 0 201 199 255
0.002102 -0.007037 0.004128 0.000000 -0.851414 -0.524493 0 179 182 255
0.008342 -0.012216 0.012536 0.191762 -0.972746 0.130355 0 179 182 255
-0.008342 -0.012216 0.012536 -0.193479 -0.973287 0.123605 0 179 182 255
0.002525 -0.007896 0.020137 0.190204 -0.783818 0.591144 0 179 182 255
-0.002525 -0.007896 0.020137 -0.197538 -0.779573 0.594344 0 179 182 255
-0.005568 -0.007017 0.016143 -0.795076 0.003584 0.606499 0 179 182 255
0.005769 -0.007019 0.016169 0.778674 -0.051581 0.625304 0 179 182 255
0.008342 -0.012216 0.012536 0.985420 0.000517 -0.170141 199 20 137 255
-0.005214 -0.010071 0.027038 -0.735942 -0.416030 0.534142 0 0 0 255
0.003776 -0.014892 0.025499 0.771390 -0.414284 0.483039 255 255 255 255
0.005471 -0.012701 0.024720 0.771292 -0.403886 0.491920 255 255 255 255
0.005521 -0.010263 0.026641 0.789714 -0.409293 0.456979 0 0 0 255
0.003560 -0.018696 0.022426 0.378328 -0.594682 0.709381 0 201 199 255
-0.005118 -0.018495 0.019976 -0.972832 -0.229636 0.029398 199 20 137 255
-0.002102 -0.007037 0.004128 0.000000 -0.851414 -0.524493 0 179 182 255
3 0 1 2
3 3 4 5
3 0 6 3
3 7 0 3
3 6 1 4
3 8 9 10
3 8 10 11
3 3 5 12
3 13 14 15
3 16 17 18
3 19 17 16
3 17 20 18
3 21 22 23
3 24 16 18
3 17 25 26
3 27 28 29
3 30 31 32
3 33 30 32
3 34 35 36
3 37 38 39
3 40 41 37
3 42 43 41
3 44 42 40
3 45 44 40
3 38 41 43
3 39 40 37
3 46 47 48
3 49 47 50
3 51 52 53
3 54 48 55
3 51 48 47
3 56 54 55
3 57 58 59
3 54 58 60
3 56 59 54
3 61 58 62
3 63 50 64
3 65 66 51
3 62 57 67
3 65 68 67
3 69 70 71
3 72 73 70
3 73 74 75
3 74 71 75
3 73 71 70
3 72 74 76
3 77 78 79
3 80 77 81
3 80 82 83
3 84 83 79
3 78 77 85
3 83 82 81
3 86 85 87
3 87 80 84
3 88 84 78
3 77 80 87
3 89 90 91
3 92 93 89
3 92 94 95
3 96 90 94
3 91 97 89
3 94 93 95
3 98 99 97
3 99 96 92
3 100 91 96
3 89 99 92
3 101 102 103
3 103 102 104
3 103 105 106
3 104 102 107
3 0 108 1
3 3 6 4
3 0 2 6
3 7 8 0
3 6 2 1
3 8 7 9
3 108 0 11
3 0 8 11
3 12 9 7
3 7 3 12
3 13 109 14
3 19 25 17
3 17 26 20
3 23 20 21
3 20 26 21
3 22 16 24
3 22 24 23
3 110 30 111
3 110 111 27
3 28 33 32
3 29 110 27
3 28 32 29
3 33 111 30
3 34 112 35
3 40 42 41
3 42 113 43
3 44 113 42
3 38 37 41
3 39 45 40
3 60 61 48
3 61 46 48
3 52 47 49
3 47 46 50
3 51 47 52
3 54 60 48
3 51 55 48
3 55 51 66
3 66 56 55
3 57 62 58
3 54 59 58
3 56 57 59
3 61 60 58
3 63 49 50
3 51 53 114
3 114 65 51
3 67 68 64
3 68 63 64
3 64 62 67
3 65 114 68
3 69 72 70
3 72 76 73
3 73 76 74
3 74 69 71
3 73 75 71
3 72 69 74
3 77 79 81
3 80 81 82
3 80 83 84
3 84 79 78
3 78 85 86
3 83 81 79
3 86 87 88
3 87 88 84
3 88 78 86
3 77 87 85
3 89 93 90
3 92 95 93
3 92 96 94
3 96 91 90
3 91 98 97
3 94 90 93
3 98 100 99
3 99 100 96
3 100 98 91
3 89 97 99
3 101 103 115
3 103 104 105
