ply
format ascii 1.0
comment Created by Blender 2.91.2 - www.blender.org
element vertex 32
property float x
property float y
property float z
property float nx
property float ny
property float nz
property uchar red
property uchar green
property uchar blue
property uchar alpha
element face 20
property list uchar uint vertex_indices
end_header
0.125289 -0.124818 0.000511 -0.000000 0.000000 1.000000 0 0 0 255
-0.110412 -0.111339 0.000511 -0.000000 0.000000 1.000000 0 0 0 255
-0.123890 -0.124818 0.000511 -0.000000 0.000000 1.000000 0 0 0 255
-0.110412 0.110883 0.000511 0.000000 0.000000 1.000000 0 0 0 255
-0.123890 0.124361 0.000511 0.000000 0.000000 1.000000 0 0 0 255
0.125289 0.124361 0.000511 0.000000 -0.000000 1.000000 0 0 0 255
0.111810 -0.111339 0.000511 0.000000 -0.000000 1.000000 0 0 0 255
0.111810 0.110883 0.000511 0.000000 0.000000 1.000000 0 0 0 255
-0.063437 -0.063437 0.125986 -1.000000 0.000000 0.000000 255 89 216 255
-0.063437 0.063437 -0.000888 -1.000000 0.000000 0.000000 148 0 255 255
-0.063437 -0.063437 -0.000888 -1.000000 0.000000 0.000000 148 0 255 255
-0.063437 0.063437 0.125986 0.000000 1.000000 -0.000000 255 89 216 255
0.063437 0.063437 -0.000888 0.000000 1.000000 -0.000000 148 0 255 255
-0.063437 0.063437 -0.000888 0.000000 1.000000 -0.000000 148 0 255 255
0.063437 0.063437 0.125986 1.000000 0.000000 -0.000000 255 89 216 255
0.063437 -0.063437 -0.000888 1.000000 0.000000 -0.000000 148 0 255 255
0.063437 0.063437 -0.000888 1.000000 0.000000 -0.000000 148 0 255 255
0.063437 -0.063437 0.125986 0.000000 -1.000000 0.000000 255 89 216 255
-0.063437 -0.063437 -0.000888 0.000000 -1.000000 0.000000 148 0 255 255
0.063437 -0.063437 -0.000888 0.000000 -1.000000 0.000000 148 0 255 255
-0.063437 0.063437 0.125986 0.000000 0.000000 1.000000 255 89 216 255
0.063437 -0.063437 0.125986 0.000000 0.000000 1.000000 255 89 216 255
0.063437 0.063437 0.125986 0.000000 0.000000 1.000000 255 89 216 255
0.119701 -0.119672 0.000000 -0.000000 0.000000 1.000000 188 0 255 255
-0.119701 0.119672 0.000000 -0.000000 0.000000 1.000000 188 0 255 255
-0.119701 -0.119672 0.000000 -0.000000 0.000000 1.000000 188 0 255 255
-0.063437 0.063437 0.125986 -1.000000 0.000000 0.000000 255 89 216 255
0.063437 0.063437 0.125986 0.000000 1.000000 -0.000000 255 89 216 255
0.063437 -0.063437 0.125986 1.000000 0.000000 0.000000 255 89 216 255
-0.063437 -0.063437 0.125986 0.000000 -1.000000 0.000000 255 89 216 255
-0.063437 -0.063437 0.125986 0.000000 -0.000000 1.000000 255 89 216 255
0.119701 0.119672 0.000000 -0.000000 0.000000 1.000000 188 0 255 255
3 0 1 2
3 2 3 4
3 5 6 0
3 4 7 5
3 8 9 10
3 11 12 13
3 14 15 16
3 17 18 19
3 20 21 22
3 23 24 25
3 0 6 1
3 2 1 3
3 5 7 6
3 4 3 7
3 8 26 9
3 11 27 12
3 14 28 15
3 17 29 18
3 20 30 21
3 23 31 24
