ply
format ascii 1.0
comment Created by Blender 2.91.2 - www.blender.org
element vertex 402
property float x
property float y
property float z
property float nx
property float ny
property float nz
property uchar red
property uchar green
property uchar blue
property uchar alpha
element face 496
property list uchar uint vertex_indices
end_header
0.019928 -0.012690 0.047205 0.205115 -0.457076 0.865413 64 153 231 255
0.018716 -0.013976 0.046813 0.182348 -0.445814 0.876339 64 153 231 255
0.020681 -0.013714 0.046293 0.297006 -0.479629 0.825648 64 153 231 255
0.006143 -0.012997 0.048429 0.044527 -0.467483 0.882839 64 153 231 255
0.000000 -0.015429 0.047325 0.000000 -0.474044 0.880459 64 153 231 255
0.006321 -0.015273 0.047218 0.042146 -0.467360 0.883053 64 153 231 255
0.017805 -0.012067 0.047742 0.137242 -0.407697 0.902737 64 153 231 255
0.015963 -0.014625 0.046856 0.108188 -0.457808 0.882412 64 153 231 255
0.010776 -0.012759 0.048225 0.059938 -0.459120 0.886319 64 153 231 255
0.011330 -0.014988 0.047037 0.062990 -0.463027 0.884091 64 153 231 255
0.015451 -0.012523 0.048028 0.124882 -0.456862 0.880703 64 153 231 255
0.018736 -0.029757 0.037404 0.217353 -0.537278 0.814905 64 153 231 255
0.013004 -0.023676 0.042323 0.091983 -0.507523 0.856685 64 153 231 255
0.014304 -0.030957 0.037476 0.113437 -0.565508 0.816889 64 153 231 255
0.007229 -0.031790 0.037547 0.041932 -0.588214 0.807581 64 153 231 255
0.022363 -0.027941 0.037306 0.409253 -0.478256 0.777001 64 153 231 255
0.017453 -0.022861 0.042193 0.185308 -0.506333 0.842158 64 153 231 255
0.006881 -0.024265 0.042438 0.039308 -0.507340 0.860836 64 153 231 255
0.000000 -0.031862 0.037581 0.000000 -0.591723 0.806116 64 153 231 255
0.024586 -0.025097 0.037421 0.504990 -0.442396 0.741081 64 153 231 255
0.020906 -0.021891 0.041686 0.346416 -0.481429 0.805109 64 153 231 255
0.000000 -0.035768 0.034370 0.000000 -0.633076 0.774071 64 153 231 255
0.007546 -0.035714 0.034361 0.038453 -0.622333 0.781762 64 153 231 255
0.023213 -0.032141 0.034285 0.388348 -0.490768 0.779900 64 153 231 255
0.019444 -0.033985 0.034291 0.207099 -0.561480 0.801111 64 153 231 255
0.014942 -0.035132 0.034303 0.101901 -0.592029 0.799432 64 153 231 255
0.025827 -0.029305 0.033879 0.548051 -0.422193 0.722037 64 153 231 255
0.000000 -0.024370 0.042500 0.000000 -0.510575 0.859828 64 153 231 255
0.023275 -0.020856 0.041012 0.425794 -0.471236 0.772393 64 153 231 255
0.018671 -0.013894 0.046658 -0.182073 0.445601 -0.876492 64 153 231 255
0.019889 -0.012607 0.047049 -0.205176 0.456984 -0.865444 64 153 231 255
0.020630 -0.013630 0.046141 -0.296976 0.479843 -0.825526 64 153 231 255
0.000000 -0.015344 0.047166 0.000000 0.474075 -0.880459 64 153 231 255
0.006135 -0.012913 0.048270 -0.044527 0.467513 -0.882839 64 153 231 255
0.006313 -0.015189 0.047059 -0.042177 0.467360 -0.883053 64 153 231 255
0.015939 -0.014543 0.046698 -0.108005 0.457808 -0.882443 64 153 231 255
0.017776 -0.011990 0.047581 -0.137028 0.407392 -0.902890 64 153 231 255
0.010764 -0.012676 0.048066 -0.059908 0.459120 -0.886349 64 153 231 255
0.011316 -0.014904 0.046878 -0.062960 0.463027 -0.884091 64 153 231 255
0.015429 -0.012443 0.047868 -0.124851 0.456862 -0.880703 64 153 231 255
0.018698 -0.029659 0.037257 -0.217383 0.537248 -0.814905 64 153 231 255
0.012987 -0.023584 0.042169 -0.091983 0.507523 -0.856685 64 153 231 255
0.017420 -0.022770 0.042040 -0.185369 0.506302 -0.842158 64 153 231 255
0.007222 -0.031684 0.037401 -0.041932 0.588214 -0.807581 64 153 231 255
0.014285 -0.030854 0.037329 -0.113468 0.565477 -0.816889 64 153 231 255
0.022289 -0.027854 0.037166 -0.409314 0.478317 -0.776940 64 153 231 255
0.020844 -0.021805 0.041539 -0.346507 0.481429 -0.805048 64 153 231 255
0.000000 -0.031756 0.037435 0.000000 0.591723 -0.806116 64 153 231 255
0.006873 -0.024173 0.042284 -0.039308 0.507340 -0.860836 64 153 231 255
0.024489 -0.025017 0.037291 -0.505020 0.442396 -0.741081 64 153 231 255
0.023198 -0.020771 0.040872 -0.425794 0.471084 -0.772485 64 153 231 255
0.000000 -0.035654 0.034231 0.000000 0.633076 -0.774071 64 153 231 255
0.007540 -0.035602 0.034220 -0.038453 0.622333 -0.781762 64 153 231 255
0.023133 -0.032051 0.034147 -0.387921 0.491104 -0.779931 64 153 231 255
0.014923 -0.035024 0.034160 -0.101901 0.592029 -0.799432 64 153 231 255
0.019404 -0.033884 0.034148 -0.206977 0.561541 -0.801111 64 153 231 255
0.025724 -0.029229 0.033753 -0.548112 0.422224 -0.721976 64 153 231 255
0.000000 -0.024278 0.042345 0.000000 0.510575 -0.859798 64 153 231 255
0.021180 -0.000818 0.048009 0.865932 -0.001221 0.500137 64 153 231 255
0.021315 -0.005381 0.047747 0.867702 -0.001587 0.497055 64 153 231 255
0.022373 -0.010523 0.045884 0.900601 -0.005249 0.434584 64 153 231 255
0.025951 -0.021629 0.037175 -0.927641 0.014557 -0.373119 64 153 231 255
0.027646 0.004213 0.033961 -0.924345 0.013215 -0.381237 64 153 231 255
0.027363 -0.026052 0.033429 -0.929502 0.015137 -0.368450 64 153 231 255
0.024539 -0.017560 0.040691 -0.918729 0.013031 -0.394604 64 153 231 255
0.026090 0.005303 0.037759 -0.921110 0.012329 -0.389019 64 153 231 255
0.024415 0.006461 0.041694 -0.902585 0.007355 -0.430403 64 153 231 255
0.022193 -0.010523 0.045884 -0.900601 0.005249 -0.434584 64 153 231 255
0.022331 0.007636 0.045723 -0.870052 -0.001679 -0.492935 64 153 231 255
0.021135 -0.005381 0.047747 -0.867702 0.001587 -0.497055 64 153 231 255
0.021000 -0.000818 0.048009 -0.865932 0.001221 -0.500137 64 153 231 255
0.024595 0.006461 0.041694 0.902585 -0.007355 0.430403 64 153 231 255
0.024719 -0.017560 0.040691 0.918729 -0.013031 0.394604 64 153 231 255
0.026270 0.005303 0.037759 0.921110 -0.012329 0.389019 64 153 231 255
0.026131 -0.021629 0.037175 0.927641 -0.014557 0.373119 64 153 231 255
0.027826 0.004213 0.033961 0.924345 -0.013215 0.381237 64 153 231 255
0.027543 -0.026052 0.033429 0.929502 -0.015137 0.368450 64 153 231 255
0.005010 0.060236 0.038955 0.011078 0.494125 0.869289 64 153 231 255
0.000000 0.062991 0.037392 0.000000 0.493393 0.869778 64 153 231 255
0.000000 0.060236 0.038955 0.000000 0.495712 0.868465 64 153 231 255
0.014677 0.059118 0.038904 0.139409 0.482589 0.864650 64 153 231 255
0.010417 0.062725 0.037392 0.065218 0.487442 0.870693 64 153 231 255
0.009751 0.060013 0.038955 0.059053 0.489822 0.869778 64 153 231 255
0.023307 0.058532 0.037030 0.266030 0.430647 0.862392 64 153 231 255
0.019047 0.058025 0.038598 0.228858 0.473464 0.850551 64 153 231 255
0.022863 0.056426 0.038148 0.292062 0.423444 0.857509 64 153 231 255
0.019580 0.060553 0.037028 0.218116 0.474899 0.852565 64 153 231 255
0.005382 0.062991 0.037392 0.012818 0.492752 0.870052 64 153 231 255
0.006890 0.043433 0.046970 0.033876 0.368755 0.928892 64 153 231 255
0.004041 0.049399 0.044445 0.005829 0.404126 0.914670 64 153 231 255
0.003474 0.043481 0.046970 0.002045 0.370647 0.928739 64 153 231 255
0.015945 0.042481 0.046664 0.153752 0.369823 0.916257 64 153 231 255
0.012671 0.048746 0.044299 0.090426 0.400494 0.911802 64 153 231 255
0.011476 0.042979 0.046838 0.068606 0.368694 0.927000 64 153 231 255
0.007946 0.049287 0.044445 0.042451 0.402142 0.914579 64 153 231 255
0.000000 0.049399 0.044445 0.000000 0.402905 0.915220 64 153 231 255
0.000000 0.043481 0.046970 0.000000 0.370251 0.928922 64 153 231 255
0.019901 0.041696 0.045968 0.240577 0.359905 0.901395 64 153 231 255
0.017147 0.048237 0.043975 0.199011 0.396191 0.896329 64 153 231 255
0.003061 0.039638 0.048396 0.000092 0.347942 0.937498 64 153 231 255
0.000000 0.039639 0.048396 0.000000 0.348003 0.937468 64 153 231 255
0.010662 0.039243 0.048272 0.058260 0.345073 0.936735 64 153 231 255
0.006151 0.039638 0.048395 0.026521 0.345805 0.937925 64 153 231 255
0.015146 0.038846 0.048141 0.113285 0.347972 0.930601 64 153 231 255
0.017806 0.038492 0.047793 0.220832 0.359600 0.906583 64 153 231 255
0.004620 0.055611 0.041598 0.010804 0.457564 0.889096 64 153 231 255
0.013893 0.054805 0.041436 0.118229 0.449385 0.885464 64 153 231 255
0.009025 0.055433 0.041598 0.052828 0.454176 0.889309 64 153 231 255
0.000000 0.055631 0.041615 0.000000 0.458357 0.888730 64 153 231 255
0.021061 0.047265 0.043118 0.294809 0.387799 0.873287 64 153 231 255
0.018310 0.053986 0.041079 0.236488 0.434400 0.869076 64 153 231 255
0.022171 0.052859 0.040135 0.326640 0.402264 0.855251 64 153 231 255
0.015916 0.042414 0.046499 -0.153752 -0.369823 -0.916257 64 153 231 255
0.012653 0.048674 0.044135 -0.090426 -0.400494 -0.911802 64 153 231 255
0.017111 0.048165 0.043813 -0.199011 -0.396191 -0.896329 64 153 231 255
0.006884 0.043367 0.046802 -0.033876 -0.368755 -0.928892 64 153 231 255
0.004039 0.049326 0.044281 -0.005829 -0.404126 -0.914670 64 153 231 255
0.007938 0.049214 0.044281 -0.042451 -0.402142 -0.914579 64 153 231 255
0.009740 0.059925 0.038798 -0.059053 -0.489822 -0.869808 64 153 231 255
0.005380 0.062902 0.037236 -0.012818 -0.492752 -0.870052 64 153 231 255
0.010406 0.062637 0.037235 -0.065218 -0.487442 -0.870693 64 153 231 255
0.014652 0.059031 0.038749 -0.139409 -0.482620 -0.864650 64 153 231 255
0.019539 0.060471 0.036873 -0.218116 -0.474837 -0.852596 64 153 231 255
0.019004 0.057942 0.038443 -0.228828 -0.473403 -0.850581 64 153 231 255
0.023260 0.058455 0.036875 -0.265999 -0.430708 -0.862392 64 153 231 255
0.022811 0.056349 0.037993 -0.292062 -0.423444 -0.857540 64 153 231 255
0.011462 0.042912 0.046672 -0.068575 -0.368694 -0.927000 64 153 231 255
0.015367 0.061908 0.037061 -0.150365 -0.471999 -0.868648 64 153 231 255
0.005008 0.060147 0.038799 -0.011048 -0.494125 -0.869289 64 153 231 255
0.000000 0.062902 0.037236 0.000000 -0.493393 -0.869778 64 153 231 255
0.003473 0.043414 0.046803 -0.002045 -0.370647 -0.928770 64 153 231 255
0.000000 0.049326 0.044281 0.000000 -0.402905 -0.915220 64 153 231 255
0.019858 0.041630 0.045807 -0.240547 -0.359935 -0.901425 64 153 231 255
0.021011 0.047194 0.042960 -0.294839 -0.387799 -0.873287 64 153 231 255
0.003061 0.039576 0.048227 -0.000092 -0.347911 -0.937498 64 153 231 255
0.000000 0.043414 0.046803 0.000000 -0.370251 -0.928922 64 153 231 255
0.010651 0.039179 0.048103 -0.058229 -0.345073 -0.936735 64 153 231 255
0.015121 0.038783 0.047974 -0.113224 -0.348003 -0.930601 64 153 231 255
0.006145 0.039576 0.048226 -0.026521 -0.345805 -0.937925 64 153 231 255
0.017767 0.038427 0.047629 -0.220740 -0.359600 -0.906583 64 153 231 255
0.004618 0.055529 0.041438 -0.010804 -0.457564 -0.889096 64 153 231 255
0.009016 0.055351 0.041438 -0.052828 -0.454207 -0.889309 64 153 231 255
0.013871 0.054723 0.041276 -0.118259 -0.449355 -0.885464 64 153 231 255
0.018270 0.053908 0.040921 -0.236518 -0.434400 -0.869106 64 153 231 255
0.000000 0.055549 0.041455 0.000000 -0.458357 -0.888730 64 153 231 255
0.022117 0.052784 0.039980 -0.326701 -0.402234 -0.855220 64 153 231 255
0.000000 0.060147 0.038799 0.000000 -0.495712 -0.868465 64 153 231 255
0.024539 0.009708 0.041694 0.898679 0.005127 0.438520 64 153 231 255
0.022906 0.028449 0.044307 0.873348 0.018708 0.486709 64 153 231 255
0.022470 0.010178 0.045723 0.875668 0.011200 0.482772 64 153 231 255
0.026363 0.028964 0.037849 0.910123 0.000977 0.414289 64 153 231 255
0.024700 0.028706 0.041078 0.881863 0.007813 0.471389 64 153 231 255
0.027687 0.029221 0.034621 0.925535 -0.003479 0.378582 64 153 231 255
0.026328 0.009242 0.037759 0.919431 -0.003845 0.393200 64 153 231 255
0.027803 0.008820 0.034100 0.927244 -0.004242 0.374371 64 153 231 255
0.021036 0.028192 0.047536 0.864193 0.024567 0.502487 64 153 231 255
0.020897 0.026949 0.047836 0.857601 0.054415 0.511399 64 153 231 255
0.027507 0.029221 0.034621 -0.925535 0.003479 -0.378582 64 153 231 255
0.026148 0.009242 0.037759 -0.919431 0.003845 -0.393200 64 153 231 255
0.026183 0.028964 0.037849 -0.910123 -0.000977 -0.414258 64 153 231 255
0.024359 0.009708 0.041694 -0.898679 -0.005127 -0.438520 64 153 231 255
0.022726 0.028449 0.044307 -0.873348 -0.018708 -0.486709 64 153 231 255
0.024520 0.028706 0.041078 -0.881863 -0.007813 -0.471389 64 153 231 255
0.022290 0.010178 0.045723 -0.875668 -0.011200 -0.482772 64 153 231 255
0.020583 0.010508 0.048540 -0.855525 -0.006287 -0.517655 64 153 231 255
0.020685 0.023194 0.048216 -0.877499 -0.012146 -0.479354 64 153 231 255
0.021154 0.029244 0.047282 0.863460 0.021027 0.503952 64 153 231 255
0.022954 0.029040 0.044206 0.868648 0.023072 0.494858 64 153 231 255
0.021486 0.030850 0.046665 0.864803 0.020051 0.501633 64 153 231 255
0.027447 0.039684 0.034888 -0.877102 -0.030793 -0.479293 64 153 231 255
0.026196 0.029580 0.037827 -0.899808 -0.023927 -0.435560 64 153 231 255
0.026390 0.041023 0.036634 -0.865810 -0.037355 -0.498947 64 153 231 255
0.026570 0.041023 0.036634 0.865810 0.037355 0.498947 64 153 231 255
0.025633 0.041787 0.038196 0.873043 0.043428 0.485641 64 153 231 255
0.026376 0.029580 0.037827 0.899808 0.023927 0.435560 64 153 231 255
0.023609 0.038249 0.041996 -0.883572 -0.042573 -0.466292 64 153 231 255
0.025453 0.041787 0.038196 -0.873043 -0.043428 -0.485641 64 153 231 255
0.024809 0.041107 0.039758 0.868374 0.073855 0.490310 64 153 231 255
0.023789 0.038249 0.041996 0.883572 0.042573 0.466292 64 153 231 255
0.022587 0.035002 0.044239 -0.878903 -0.035585 -0.475631 64 153 231 255
0.024551 0.029310 0.041016 -0.881527 -0.036653 -0.470626 64 153 231 255
0.022774 0.029040 0.044206 -0.868648 -0.023072 -0.494858 64 153 231 255
0.024731 0.029310 0.041016 0.881527 0.036653 0.470626 64 153 231 255
0.022767 0.035002 0.044239 0.878903 0.035585 0.475631 64 153 231 255
0.020921 0.028770 0.047396 -0.863491 -0.024964 -0.503708 64 153 231 255
0.020974 0.029244 0.047282 -0.863460 -0.021027 -0.503952 64 153 231 255
-0.018716 -0.013976 0.046813 -0.182348 -0.445814 0.876339 64 153 231 255
-0.019928 -0.012690 0.047205 -0.205115 -0.457076 0.865413 64 153 231 255
-0.020681 -0.013714 0.046293 -0.297006 -0.479629 0.825648 64 153 231 255
-0.006143 -0.012997 0.048429 -0.044527 -0.467483 0.882839 64 153 231 255
-0.006321 -0.015273 0.047218 -0.042146 -0.467360 0.883053 64 153 231 255
-0.015963 -0.014625 0.046856 -0.108188 -0.457808 0.882412 64 153 231 255
-0.017805 -0.012067 0.047742 -0.137242 -0.407697 0.902737 64 153 231 255
-0.010776 -0.012759 0.048225 -0.059938 -0.459120 0.886319 64 153 231 255
-0.011330 -0.014988 0.047037 -0.062990 -0.463027 0.884091 64 153 231 255
-0.015451 -0.012523 0.048028 -0.124882 -0.456862 0.880703 64 153 231 255
-0.018736 -0.029757 0.037404 -0.217353 -0.537278 0.814905 64 153 231 255
-0.013004 -0.023676 0.042323 -0.091983 -0.507523 0.856685 64 153 231 255
-0.017453 -0.022861 0.042193 -0.185308 -0.506333 0.842158 64 153 231 255
-0.007229 -0.031790 0.037547 -0.041932 -0.588214 0.807581 64 153 231 255
-0.014304 -0.030957 0.037476 -0.113437 -0.565508 0.816889 64 153 231 255
-0.022363 -0.027941 0.037306 -0.409253 -0.478256 0.777001 64 153 231 255
-0.020906 -0.021891 0.041686 -0.346416 -0.481429 0.805109 64 153 231 255
-0.006881 -0.024265 0.042438 -0.039308 -0.507340 0.860836 64 153 231 255
-0.024586 -0.025097 0.037421 -0.504990 -0.442396 0.741081 64 153 231 255
-0.023275 -0.020856 0.041012 -0.425794 -0.471236 0.772393 64 153 231 255
-0.007546 -0.035714 0.034361 -0.038453 -0.622333 0.781762 64 153 231 255
-0.023213 -0.032141 0.034285 -0.388348 -0.490768 0.779900 64 153 231 255
-0.014942 -0.035132 0.034303 -0.101901 -0.592029 0.799432 64 153 231 255
-0.019444 -0.033985 0.034291 -0.207099 -0.561480 0.801111 64 153 231 255
-0.025827 -0.029305 0.033879 -0.548051 -0.422193 0.722037 64 153 231 255
-0.019889 -0.012607 0.047049 0.205176 0.456984 -0.865444 64 153 231 255
-0.018671 -0.013894 0.046658 0.182073 0.445601 -0.876492 64 153 231 255
-0.020630 -0.013630 0.046141 0.296976 0.479843 -0.825526 64 153 231 255
-0.006135 -0.012913 0.048270 0.044527 0.467513 -0.882839 64 153 231 255
-0.006313 -0.015189 0.047059 0.042177 0.467360 -0.883053 64 153 231 255
-0.017776 -0.011990 0.047581 0.137028 0.407392 -0.902890 64 153 231 255
-0.015939 -0.014543 0.046698 0.108005 0.457808 -0.882443 64 153 231 255
-0.010764 -0.012676 0.048066 0.059908 0.459120 -0.886349 64 153 231 255
-0.011316 -0.014904 0.046878 0.062960 0.463027 -0.884091 64 153 231 255
-0.015429 -0.012443 0.047868 0.124851 0.456862 -0.880703 64 153 231 255
-0.018698 -0.029659 0.037257 0.217383 0.537248 -0.814905 64 153 231 255
-0.012987 -0.023584 0.042169 0.091983 0.507523 -0.856685 64 153 231 255
-0.014285 -0.030854 0.037329 0.113468 0.565477 -0.816889 64 153 231 255
-0.007222 -0.031684 0.037401 0.041932 0.588214 -0.807581 64 153 231 255
-0.022289 -0.027854 0.037166 0.409314 0.478317 -0.776940 64 153 231 255
-0.017420 -0.022770 0.042040 0.185369 0.506302 -0.842158 64 153 231 255
-0.006873 -0.024173 0.042284 0.039308 0.507340 -0.860836 64 153 231 255
-0.024489 -0.025017 0.037291 0.505020 0.442396 -0.741081 64 153 231 255
-0.020844 -0.021805 0.041539 0.346507 0.481429 -0.805048 64 153 231 255
-0.007540 -0.035602 0.034220 0.038453 0.622333 -0.781762 64 153 231 255
-0.023133 -0.032051 0.034147 0.387921 0.491104 -0.779931 64 153 231 255
-0.019404 -0.033884 0.034148 0.206977 0.561541 -0.801111 64 153 231 255
-0.014923 -0.035024 0.034160 0.101901 0.592029 -0.799432 64 153 231 255
-0.025724 -0.029229 0.033753 0.548112 0.422224 -0.721976 64 153 231 255
-0.023198 -0.020771 0.040872 0.425794 0.471084 -0.772485 64 153 231 255
-0.021180 -0.000818 0.048009 -0.865932 -0.001221 0.500137 64 153 231 255
-0.020788 0.008454 0.048540 -0.853816 0.006256 0.520493 64 153 231 255
-0.022511 0.007636 0.045723 -0.870052 0.001679 0.492935 64 153 231 255
-0.025951 -0.021629 0.037175 0.927641 0.014557 -0.373119 64 153 231 255
-0.027646 0.004213 0.033961 0.924345 0.013215 -0.381237 64 153 231 255
-0.026090 0.005303 0.037759 0.921110 0.012329 -0.389019 64 153 231 255
-0.024539 -0.017560 0.040691 0.918729 0.013031 -0.394604 64 153 231 255
-0.024415 0.006461 0.041694 0.902585 0.007355 -0.430403 64 153 231 255
-0.022193 -0.010523 0.045884 0.900601 0.005249 -0.434584 64 153 231 255
-0.022331 0.007636 0.045723 0.870052 -0.001679 -0.492935 64 153 231 255
-0.021000 -0.000818 0.048009 0.865932 0.001221 -0.500137 64 153 231 255
-0.022373 -0.010523 0.045884 -0.900601 -0.005249 0.434584 64 153 231 255
-0.024595 0.006461 0.041694 -0.902585 -0.007355 0.430403 64 153 231 255
-0.024719 -0.017560 0.040691 -0.918729 -0.013031 0.394604 64 153 231 255
-0.026270 0.005303 0.037759 -0.921110 -0.012329 0.389019 64 153 231 255
-0.027826 0.004213 0.033961 -0.924345 -0.013215 0.381237 64 153 231 255
-0.026131 -0.021629 0.037175 -0.927641 -0.014557 0.373119 64 153 231 255
-0.005010 0.060236 0.038955 -0.011078 0.494125 0.869289 64 153 231 255
-0.005382 0.062991 0.037392 -0.012818 0.492752 0.870052 64 153 231 255
-0.014677 0.059118 0.038904 -0.139409 0.482620 0.864650 64 153 231 255
-0.010417 0.062725 0.037392 -0.065218 0.487442 0.870693 64 153 231 255
-0.015394 0.061995 0.037217 -0.150365 0.471969 0.868648 64 153 231 255
-0.019047 0.058025 0.038598 -0.228858 0.473464 0.850551 64 153 231 255
-0.023307 0.058532 0.037030 -0.266030 0.430647 0.862392 64 153 231 255
-0.022863 0.056426 0.038148 -0.292062 0.423444 0.857509 64 153 231 255
-0.019580 0.060553 0.037028 -0.218116 0.474899 0.852565 64 153 231 255
-0.009751 0.060013 0.038955 -0.059053 0.489822 0.869778 64 153 231 255
-0.006890 0.043433 0.046970 -0.033876 0.368755 0.928892 64 153 231 255
-0.004041 0.049399 0.044445 -0.005829 0.404126 0.914670 64 153 231 255
-0.007946 0.049287 0.044445 -0.042451 0.402142 0.914579 64 153 231 255
-0.015945 0.042481 0.046664 -0.153752 0.369823 0.916257 64 153 231 255
-0.012671 0.048746 0.044299 -0.090426 0.400494 0.911802 64 153 231 255
-0.017147 0.048237 0.043975 -0.199011 0.396191 0.896329 64 153 231 255
-0.011476 0.042979 0.046838 -0.068606 0.368694 0.927000 64 153 231 255
-0.003474 0.043481 0.046970 -0.002045 0.370647 0.928739 64 153 231 255
-0.019901 0.041696 0.045968 -0.240577 0.359905 0.901395 64 153 231 255
-0.021061 0.047265 0.043118 -0.294809 0.387799 0.873287 64 153 231 255
-0.003061 0.039638 0.048396 -0.000092 0.347942 0.937498 64 153 231 255
-0.010662 0.039243 0.048272 -0.058260 0.345073 0.936735 64 153 231 255
-0.015146 0.038846 0.048141 -0.113285 0.347972 0.930601 64 153 231 255
-0.006151 0.039638 0.048395 -0.026521 0.345805 0.937925 64 153 231 255
-0.017806 0.038492 0.047793 -0.220832 0.359600 0.906583 64 153 231 255
-0.004620 0.055611 0.041598 -0.010804 0.457564 0.889096 64 153 231 255
-0.009025 0.055433 0.041598 -0.052828 0.454176 0.889309 64 153 231 255
-0.013893 0.054805 0.041436 -0.118229 0.449385 0.885464 64 153 231 255
-0.018310 0.053986 0.041079 -0.236488 0.434400 0.869076 64 153 231 255
-0.022171 0.052859 0.040135 -0.326640 0.402264 0.855251 64 153 231 255
-0.015916 0.042414 0.046499 0.153752 -0.369823 -0.916257 64 153 231 255
-0.012653 0.048674 0.044135 0.090426 -0.400494 -0.911802 64 153 231 255
-0.011462 0.042912 0.046672 0.068575 -0.368694 -0.927000 64 153 231 255
-0.006884 0.043367 0.046802 0.033876 -0.368755 -0.928892 64 153 231 255
-0.004039 0.049326 0.044281 0.005829 -0.404126 -0.914670 64 153 231 255
-0.003473 0.043414 0.046803 0.002045 -0.370647 -0.928770 64 153 231 255
-0.009740 0.059925 0.038798 0.059053 -0.489822 -0.869808 64 153 231 255
-0.005380 0.062902 0.037236 0.012818 -0.492752 -0.870052 64 153 231 255
-0.005008 0.060147 0.038799 0.011048 -0.494125 -0.869289 64 153 231 255
-0.019539 0.060471 0.036873 0.218116 -0.474837 -0.852596 64 153 231 255
-0.014652 0.059031 0.038749 0.139409 -0.482620 -0.864650 64 153 231 255
-0.019004 0.057942 0.038443 0.228828 -0.473403 -0.850581 64 153 231 255
-0.023260 0.058455 0.036875 0.265999 -0.430708 -0.862392 64 153 231 255
-0.022811 0.056349 0.037993 0.292062 -0.423444 -0.857540 64 153 231 255
-0.007938 0.049214 0.044281 0.042451 -0.402142 -0.914579 64 153 231 255
-0.010406 0.062637 0.037235 0.065218 -0.487442 -0.870693 64 153 231 255
-0.019858 0.041630 0.045807 0.240547 -0.359935 -0.901425 64 153 231 255
-0.017111 0.048165 0.043813 0.199011 -0.396191 -0.896329 64 153 231 255
-0.003061 0.039576 0.048227 0.000092 -0.347911 -0.937498 64 153 231 255
0.000000 0.039576 0.048227 0.000000 -0.348003 -0.937468 64 153 231 255
-0.010651 0.039179 0.048103 0.058229 -0.345073 -0.936735 64 153 231 255
-0.006145 0.039576 0.048226 0.026521 -0.345805 -0.937925 64 153 231 255
-0.015121 0.038783 0.047974 0.113224 -0.348003 -0.930601 64 153 231 255
-0.017767 0.038427 0.047629 0.220740 -0.359600 -0.906583 64 153 231 255
-0.004618 0.055529 0.041438 0.010804 -0.457564 -0.889096 64 153 231 255
-0.013871 0.054723 0.041276 0.118259 -0.449355 -0.885464 64 153 231 255
-0.009016 0.055351 0.041438 0.052828 -0.454207 -0.889309 64 153 231 255
-0.021011 0.047194 0.042960 0.294839 -0.387799 -0.873287 64 153 231 255
-0.018270 0.053908 0.040921 0.236518 -0.434400 -0.869106 64 153 231 255
-0.022117 0.052784 0.039980 0.326701 -0.402234 -0.855220 64 153 231 255
-0.022906 0.028449 0.044307 -0.873348 0.018708 0.486709 64 153 231 255
-0.024539 0.009708 0.041694 -0.898679 0.005127 0.438520 64 153 231 255
-0.022470 0.010178 0.045723 -0.875668 0.011200 0.482772 64 153 231 255
-0.026363 0.028964 0.037849 -0.910123 0.000977 0.414289 64 153 231 255
-0.026328 0.009242 0.037759 -0.919431 -0.003845 0.393200 64 153 231 255
-0.027687 0.029221 0.034621 -0.925535 -0.003479 0.378582 64 153 231 255
-0.020763 0.010508 0.048540 -0.855525 0.006287 0.517655 64 153 231 255
-0.020865 0.023194 0.048216 -0.877499 0.012146 0.479385 64 153 231 255
-0.027507 0.029221 0.034621 0.925535 0.003479 -0.378582 64 153 231 255
-0.026148 0.009242 0.037759 0.919431 0.003845 -0.393200 64 153 231 255
-0.027623 0.008820 0.034100 0.927244 0.004242 -0.374371 64 153 231 255
-0.026183 0.028964 0.037849 0.910123 -0.000977 -0.414258 64 153 231 255
-0.024359 0.009708 0.041694 0.898679 -0.005127 -0.438520 64 153 231 255
-0.022726 0.028449 0.044307 0.873348 -0.018708 -0.486709 64 153 231 255
-0.022290 0.010178 0.045723 0.875668 -0.011200 -0.482772 64 153 231 255
-0.020856 0.028192 0.047536 0.864193 -0.024567 -0.502487 64 153 231 255
-0.020717 0.026949 0.047836 0.857601 -0.054415 -0.511399 64 153 231 255
-0.021486 0.030850 0.046665 -0.864803 0.020051 0.501633 64 153 231 255
-0.022954 0.029040 0.044206 -0.868648 0.023072 0.494858 64 153 231 255
-0.021154 0.029244 0.047282 -0.863460 0.021027 0.503952 64 153 231 255
-0.026390 0.041023 0.036634 0.865810 -0.037355 -0.498947 64 153 231 255
-0.026196 0.029580 0.037827 0.899808 -0.023927 -0.435560 64 153 231 255
-0.027447 0.039684 0.034888 0.877102 -0.030793 -0.479293 64 153 231 255
-0.026376 0.029580 0.037827 -0.899808 0.023927 0.435560 64 153 231 255
-0.025633 0.041787 0.038196 -0.873043 0.043428 0.485641 64 153 231 255
-0.026570 0.041023 0.036634 -0.865810 0.037355 0.498947 64 153 231 255
-0.025453 0.041787 0.038196 0.873043 -0.043428 -0.485641 64 153 231 255
-0.024629 0.041107 0.039758 0.868374 -0.073855 -0.490310 64 153 231 255
-0.023609 0.038249 0.041996 0.883572 -0.042573 -0.466292 64 153 231 255
-0.023789 0.038249 0.041996 -0.883572 0.042573 0.466292 64 153 231 255
-0.024809 0.041107 0.039758 -0.868374 0.073855 0.490310 64 153 231 255
-0.022587 0.035002 0.044239 0.878903 -0.035585 -0.475631 64 153 231 255
-0.024551 0.029310 0.041016 0.881527 -0.036653 -0.470626 64 153 231 255
-0.024731 0.029310 0.041016 -0.881527 0.036653 0.470626 64 153 231 255
-0.022767 0.035002 0.044239 -0.878903 0.035585 0.475631 64 153 231 255
-0.020974 0.029244 0.047282 0.863460 -0.021027 -0.503952 64 153 231 255
-0.020921 0.028770 0.047396 0.863491 -0.024964 -0.503708 64 153 231 255
-0.022774 0.029040 0.044206 0.868648 -0.023072 -0.494858 64 153 231 255
0.000000 -0.013195 0.048530 0.000000 -0.474899 0.880032 64 153 231 255
0.000000 -0.013110 0.048372 0.000000 0.474899 -0.880001 64 153 231 255
0.021947 -0.009039 0.046752 0.962676 0.141789 0.230537 64 153 231 255
0.021599 -0.007554 0.047289 0.898892 0.027314 0.437300 64 153 231 255
0.022511 0.007636 0.045723 0.870052 0.001679 0.492935 64 153 231 255
0.020788 0.008454 0.048540 0.853816 0.006256 0.520493 64 153 231 255
0.020608 0.008454 0.048540 -0.853816 -0.006256 -0.520493 64 153 231 255
0.021767 -0.009039 0.046752 -0.962676 -0.141789 -0.230506 64 153 231 255
0.021419 -0.007554 0.047289 -0.898892 -0.027314 -0.437300 64 153 231 255
0.015394 0.061995 0.037217 0.150365 0.471969 0.868648 64 153 231 255
0.019371 0.039323 0.046985 0.246071 0.358562 0.900479 64 153 231 255
0.019328 0.039258 0.046822 -0.246132 -0.358592 -0.900449 64 153 231 255
0.020882 0.024521 0.048182 0.879238 0.016602 0.476058 64 153 231 255
0.020865 0.023194 0.048216 0.877499 0.012146 0.479385 64 153 231 255
0.020763 0.010508 0.048540 0.855525 0.006287 0.517655 64 153 231 255
0.027623 0.008820 0.034100 -0.927244 0.004242 -0.374371 64 153 231 255
0.020702 0.024521 0.048182 -0.879238 -0.016602 -0.476058 64 153 231 255
0.020717 0.026949 0.047836 -0.857601 -0.054415 -0.511399 64 153 231 255
0.020856 0.028192 0.047536 -0.864193 -0.024567 -0.502487 64 153 231 255
0.021101 0.028770 0.047396 0.863491 0.024964 0.503708 64 153 231 255
0.027504 0.029850 0.034637 -0.925443 0.004364 -0.378826 64 153 231 255
0.027684 0.029850 0.034637 0.925443 -0.004364 0.378826 64 153 231 255
0.027627 0.039684 0.034888 0.877102 0.030793 0.479293 64 153 231 255
0.024629 0.041107 0.039758 -0.868374 -0.073855 -0.490310 64 153 231 255
0.021306 0.030850 0.046665 -0.864803 -0.020051 -0.501633 64 153 231 255
-0.021947 -0.009039 0.046752 -0.962645 0.141789 0.230537 64 153 231 255
-0.021599 -0.007554 0.047289 -0.898892 0.027314 0.437300 64 153 231 255
-0.021315 -0.005381 0.047747 -0.867702 -0.001587 0.497055 64 153 231 255
-0.027363 -0.026052 0.033429 0.929502 0.015137 -0.368450 64 153 231 255
-0.020608 0.008454 0.048540 0.853816 -0.006256 -0.520493 64 153 231 255
-0.021135 -0.005381 0.047747 0.867702 0.001587 -0.497055 64 153 231 255
-0.021419 -0.007554 0.047289 0.898892 -0.027314 -0.437300 64 153 231 255
-0.021767 -0.009039 0.046752 0.962676 -0.141789 -0.230506 64 153 231 255
-0.027543 -0.026052 0.033429 -0.929502 -0.015137 0.368450 64 153 231 255
-0.019371 0.039323 0.046985 -0.246071 0.358562 0.900479 64 153 231 255
-0.015367 0.061908 0.037061 0.150365 -0.471999 -0.868648 64 153 231 255
-0.019328 0.039258 0.046822 0.246132 -0.358592 -0.900449 64 153 231 255
-0.024700 0.028706 0.041078 -0.881863 0.007813 0.471389 64 153 231 255
-0.027803 0.008820 0.034100 -0.927244 -0.004242 0.374371 64 153 231 255
-0.020882 0.024521 0.048182 -0.879238 0.016602 0.476058 64 153 231 255
-0.020897 0.026949 0.047836 -0.857601 0.054415 0.511399 64 153 231 255
-0.021036 0.028192 0.047536 -0.864193 0.024567 0.502487 64 153 231 255
-0.024520 0.028706 0.041078 0.881863 -0.007813 -0.471389 64 153 231 255
-0.020702 0.024521 0.048182 0.879238 -0.016602 -0.476058 64 153 231 255
-0.020685 0.023194 0.048216 0.877499 -0.012146 -0.479354 64 153 231 255
-0.020583 0.010508 0.048540 0.855525 -0.006287 -0.517655 64 153 231 255
-0.021101 0.028770 0.047396 -0.863491 0.024964 0.503708 64 153 231 255
-0.027504 0.029850 0.034637 0.925443 0.004364 -0.378826 64 153 231 255
-0.027627 0.039684 0.034888 -0.877102 0.030793 0.479293 64 153 231 255
-0.027684 0.029850 0.034637 -0.925443 -0.004364 0.378826 64 153 231 255
-0.021306 0.030850 0.046665 0.864803 -0.020051 -0.501633 64 153 231 255
3 0 1 2
3 3 4 5
3 6 7 1
3 8 5 9
3 10 9 7
3 11 12 13
3 12 14 13
3 15 16 11
3 17 18 14
3 19 20 15
3 14 21 22
3 23 11 24
3 13 22 25
3 24 13 25
3 26 15 23
3 7 12 16
3 9 17 12
3 1 16 20
3 5 27 17
3 2 20 28
3 29 30 31
3 32 33 34
3 35 36 29
3 34 37 38
3 38 39 35
3 40 41 42
3 43 41 44
3 45 42 46
3 47 48 43
3 49 46 50
3 51 43 52
3 53 40 45
3 52 44 54
3 55 44 40
3 56 45 49
3 41 35 42
3 48 38 41
3 42 29 46
3 57 34 48
3 46 31 50
3 58 59 60
3 61 62 63
3 64 65 61
3 66 67 68
3 69 70 67
3 71 60 72
3 73 72 74
3 75 74 76
3 77 78 79
3 80 81 82
3 83 84 85
3 86 80 84
3 82 87 77
3 88 89 90
3 91 92 93
3 93 94 88
3 90 95 96
3 97 98 91
3 99 96 100
3 101 88 102
3 103 93 101
3 102 90 99
3 91 103 104
3 94 105 89
3 98 106 92
3 92 107 94
3 89 108 95
3 109 110 98
3 107 77 105
3 110 80 106
3 106 82 107
3 105 79 108
3 85 110 111
3 112 113 114
3 115 116 117
3 118 119 120
3 121 122 123
3 123 124 125
3 126 117 113
3 121 120 127
3 128 129 119
3 130 131 116
3 132 114 133
3 134 135 130
3 136 115 126
3 137 126 112
3 138 130 115
3 139 137 112
3 117 140 141
3 114 142 143
3 113 141 142
3 116 144 140
3 133 143 145
3 141 128 118
3 143 121 123
3 142 118 121
3 140 146 128
3 143 125 145
3 147 148 149
3 147 150 151
3 152 153 154
3 148 155 156
3 157 158 159
3 160 159 158
3 160 161 162
3 163 164 165
3 166 167 168
3 169 170 171
3 172 173 174
3 175 176 170
3 173 177 178
3 179 180 181
3 182 183 167
3 181 184 185
3 186 187 188
3 4 189 190
3 191 192 186
3 190 193 194
3 194 195 191
3 196 197 198
3 199 197 200
3 201 198 202
3 18 203 199
3 204 202 205
3 21 199 206
3 207 196 201
3 206 200 208
3 209 200 196
3 210 201 204
3 197 191 198
3 203 194 197
3 198 186 202
3 27 190 203
3 202 188 205
3 211 212 213
3 214 32 215
3 216 217 212
3 218 215 219
3 220 219 217
3 221 222 223
3 222 224 223
3 225 226 221
3 227 47 224
3 228 229 225
3 224 51 230
3 231 221 232
3 223 230 233
3 232 223 233
3 234 225 231
3 217 222 226
3 219 227 222
3 212 226 229
3 215 57 227
3 213 229 235
3 236 237 238
3 239 240 241
3 242 241 243
3 244 243 245
3 244 245 246
3 247 248 249
3 250 249 248
3 251 252 250
3 253 78 254
3 255 256 257
3 258 259 260
3 255 261 258
3 262 254 256
3 263 264 265
3 266 267 268
3 269 265 267
3 270 95 264
3 271 268 272
3 273 96 270
3 274 263 269
3 275 269 266
3 276 270 263
3 277 275 266
3 265 278 279
3 268 280 281
3 267 279 280
3 264 108 278
3 272 281 282
3 279 253 262
3 281 255 258
3 280 262 255
3 278 79 253
3 281 260 282
3 283 284 285
3 286 287 288
3 289 290 291
3 292 293 294
3 295 294 296
3 285 297 286
3 293 298 289
3 291 129 146
3 288 131 135
3 299 300 283
3 301 135 302
3 303 286 304
3 305 285 303
3 304 288 301
3 283 305 306
3 297 307 287
3 300 308 284
3 284 309 297
3 287 144 131
3 310 311 300
3 309 291 307
3 311 293 308
3 308 289 309
3 307 146 144
3 296 311 312
3 313 314 315
3 314 316 317
3 318 317 316
3 315 319 320
3 321 322 323
3 324 325 322
3 325 326 327
3 326 328 329
3 330 331 332
3 333 334 335
3 336 337 338
3 339 340 341
3 337 342 343
3 344 345 341
3 346 347 342
3 348 349 350
3 0 6 1
3 3 351 4
3 6 10 7
3 8 3 5
3 10 8 9
3 11 16 12
3 12 17 14
3 15 20 16
3 17 27 18
3 19 28 20
3 14 18 21
3 23 15 11
3 13 14 22
3 24 11 13
3 26 19 15
3 7 9 12
3 9 5 17
3 1 7 16
3 5 4 27
3 2 1 20
3 29 36 30
3 32 352 33
3 35 39 36
3 34 33 37
3 38 37 39
3 40 44 41
3 43 48 41
3 45 40 42
3 47 57 48
3 49 45 46
3 51 47 43
3 53 55 40
3 52 43 44
3 55 54 44
3 56 53 45
3 41 38 35
3 48 34 38
3 42 35 29
3 57 32 34
3 46 29 31
3 353 60 354
3 60 355 58
3 354 60 59
3 355 356 58
3 61 65 62
3 64 66 65
3 66 64 67
3 70 357 68
3 68 67 70
3 67 358 359
3 69 67 359
3 71 355 60
3 73 71 72
3 75 73 74
3 77 87 78
3 80 360 81
3 83 86 84
3 86 360 80
3 82 81 87
3 88 94 89
3 91 98 92
3 93 92 94
3 90 89 95
3 97 109 98
3 99 90 96
3 101 93 88
3 103 91 93
3 102 88 90
3 104 361 91
3 361 97 91
3 94 107 105
3 98 110 106
3 92 106 107
3 89 105 108
3 109 111 110
3 107 82 77
3 110 84 80
3 106 80 82
3 105 77 79
3 85 84 110
3 112 126 113
3 115 130 116
3 118 128 119
3 121 127 122
3 123 122 124
3 126 115 117
3 121 118 120
3 128 146 129
3 130 135 131
3 132 112 114
3 134 302 135
3 136 138 115
3 137 136 126
3 138 134 130
3 132 362 112
3 362 139 112
3 117 116 140
3 114 113 142
3 113 117 141
3 116 131 144
3 133 114 143
3 141 140 128
3 143 142 121
3 142 141 118
3 140 144 146
3 143 123 125
3 147 151 148
3 147 153 150
3 152 150 153
3 156 363 148
3 363 364 148
3 364 365 149
3 149 148 364
3 157 366 158
3 160 162 159
3 160 163 161
3 165 367 161
3 367 368 161
3 368 369 161
3 161 163 165
3 370 167 166
3 167 183 168
3 371 170 169
3 170 176 171
3 372 373 174
3 373 172 174
3 170 180 175
3 175 374 176
3 182 174 178
3 174 173 178
3 179 175 180
3 182 178 183
3 185 375 181
3 375 179 181
3 186 192 187
3 4 351 189
3 191 195 192
3 190 189 193
3 194 193 195
3 196 200 197
3 199 203 197
3 201 196 198
3 18 27 203
3 204 201 202
3 21 18 199
3 207 209 196
3 206 199 200
3 209 208 200
3 210 207 201
3 197 194 191
3 203 190 194
3 198 191 186
3 27 4 190
3 202 186 188
3 211 216 212
3 214 352 32
3 216 220 217
3 218 214 215
3 220 218 219
3 221 226 222
3 222 227 224
3 225 229 226
3 227 57 47
3 228 235 229
3 224 47 51
3 231 225 221
3 223 224 230
3 232 221 223
3 234 228 225
3 217 219 222
3 219 215 227
3 212 217 226
3 215 32 57
3 213 212 229
3 238 247 236
3 247 376 377
3 236 247 378
3 377 378 247
3 239 379 240
3 242 239 241
3 244 242 243
3 245 380 246
3 246 381 244
3 381 382 244
3 382 383 244
3 247 238 248
3 250 252 249
3 251 384 252
3 253 79 78
3 255 262 256
3 258 261 259
3 255 257 261
3 262 253 254
3 263 270 264
3 266 269 267
3 269 263 265
3 270 96 95
3 271 266 268
3 273 100 96
3 274 276 263
3 275 274 269
3 276 273 270
3 271 385 266
3 385 277 266
3 265 264 278
3 268 267 280
3 267 265 279
3 264 95 108
3 272 268 281
3 279 278 253
3 281 280 255
3 280 279 262
3 278 108 79
3 281 258 260
3 283 300 284
3 286 297 287
3 289 298 290
3 292 386 293
3 295 292 294
3 285 284 297
3 293 386 298
3 291 290 129
3 288 287 131
3 299 310 300
3 301 288 135
3 303 285 286
3 305 283 285
3 304 286 288
3 306 387 283
3 387 299 283
3 297 309 307
3 300 311 308
3 284 308 309
3 287 307 144
3 310 312 311
3 309 289 291
3 311 294 293
3 308 293 289
3 307 291 146
3 296 294 311
3 313 388 314
3 314 388 316
3 318 389 317
3 320 390 313
3 390 391 313
3 391 392 313
3 313 315 320
3 321 324 322
3 324 393 325
3 325 393 326
3 329 394 326
3 394 395 326
3 395 396 327
3 327 326 395
3 347 331 330
3 331 397 332
3 339 334 333
3 334 398 335
3 338 399 336
3 399 400 336
3 341 345 334
3 334 339 341
3 337 336 342
3 336 346 342
3 344 350 345
3 346 331 347
3 344 401 350
3 401 348 350
